<svg xmlns="http://www.w3.org/2000/svg" viewBox="0 0 256 256" fill="none">
<g fill="#00A6A6"><circle cx="62" cy="62" r="7"/><circle cx="87" cy="92" r="6"/><circle cx="52" cy="132" r="6"/><circle cx="92" cy="163" r="7"/><circle cx="64" cy="197" r="5"/></g>
<g stroke="#051837" stroke-width="6" stroke-linecap="round" stroke-linejoin="round">
<path d="M69 66L122 83H164"/><path d="M91 94L126 116H164"/><path d="M58 132L122 149H164"/><path d="M94 164L126 182H164"/>
<rect x="164" y="71" width="43" height="24" rx="8"/><rect x="164" y="104" width="43" height="24" rx="8"/><rect x="164" y="137" width="43" height="24" rx="8"/><rect x="164" y="170" width="43" height="24" rx="8"/>
</g>
<g fill="#00A6A6"><circle cx="207" cy="83" r="5"/><circle cx="207" cy="116" r="5"/><circle cx="207" cy="149" r="5"/><circle cx="207" cy="182" r="5"/></g>
<path d="M166 216H199M199 216L188 205M199 216L188 227" stroke="#00A6A6" stroke-width="7" stroke-linecap="round" stroke-linejoin="round"/>
</svg>